<svg width="286" height="286" viewBox="0 0 286 286" fill="none" xmlns="http://www.w3.org/2000/svg">
<g clip-path="url(#clip0_3_261)">
<path d="M151.63 4.86V122.15L234.57 39.21L246.78 51.42L163.84 134.36H281.13V151.63H163.84L246.78 234.57L234.57 246.78L151.63 163.84V281.13H134.36V163.84L51.42 246.78L39.21 234.57L122.15 151.63H4.86V134.36H122.15L39.21 51.42L51.42 39.21L134.36 122.15V4.86H151.63ZM156.49 0H129.51V110.42L54.86 35.78L51.42 32.34L47.98 35.78L35.77 47.99L32.33 51.43L35.77 54.87L110.41 129.51H0V156.49H110.42L35.78 231.13L32.34 234.57L35.78 238.01L47.99 250.22L51.43 253.66L54.87 250.22L129.51 175.58V286H156.49V175.58L231.13 250.22L234.57 253.66L238.01 250.22L250.22 238.01L253.66 234.57L250.22 231.13L175.58 156.49H286V129.51H175.58L250.22 54.87L253.66 51.43L250.22 47.99L238.01 35.78L234.57 32.34L231.13 35.78L156.49 110.42V0Z" fill="#66FF8A"/>
</g>
<defs>
<clipPath id="clip0_3_261">
<rect width="285.99" height="285.99" fill="white"/>
</clipPath>
</defs>
</svg>
